<svg width="40" height="40" viewBox="0 0 40 40" fill="none" xmlns="http://www.w3.org/2000/svg">
<path d="M0 20C0 8.95431 8.95431 0 20 0C31.0457 0 40 8.95431 40 20C40 31.0457 31.0457 40 20 40C8.95431 40 0 31.0457 0 20Z" fill="#F3EFF5"/>
<path d="M27 20H13" stroke="#0D0A0B" stroke-width="2" stroke-linecap="round" stroke-linejoin="round"/>
<path d="M20 27L13 20L20 13" stroke="#0D0A0B" stroke-width="2" stroke-linecap="round" stroke-linejoin="round"/>
<path d="M20 38C10.0589 38 2 29.9411 2 20H-2C-2 32.1503 7.84974 42 20 42V38ZM38 20C38 29.9411 29.9411 38 20 38V42C32.1503 42 42 32.1503 42 20H38ZM20 2C29.9411 2 38 10.0589 38 20H42C42 7.84974 32.1503 -2 20 -2V2ZM20 -2C7.84974 -2 -2 7.84974 -2 20H2C2 10.0589 10.0589 2 20 2V-2Z" fill="#0D0A0B"/>
</svg>
