<svg width="46" height="18" viewBox="0 0 46 18" fill="none" xmlns="http://www.w3.org/2000/svg">
<rect width="46" height="18" rx="9" fill="#3F7D20"/>
<path d="M6.73926 10.96C6.99967 10.96 7.21126 10.8883 7.37402 10.7451C7.53678 10.6019 7.62142 10.4115 7.62793 10.1738H8.95117C8.94792 10.5319 8.85026 10.8607 8.6582 11.1602C8.46615 11.4564 8.20247 11.6875 7.86719 11.8535C7.53516 12.0163 7.16732 12.0977 6.76367 12.0977C6.00846 12.0977 5.41276 11.8584 4.97656 11.3799C4.54036 10.8981 4.32227 10.234 4.32227 9.3877V9.29492C4.32227 8.48112 4.53874 7.83171 4.97168 7.34668C5.40462 6.86165 5.9987 6.61914 6.75391 6.61914C7.41471 6.61914 7.94368 6.80794 8.34082 7.18555C8.74121 7.5599 8.94466 8.05957 8.95117 8.68457H7.62793C7.62142 8.41113 7.53678 8.18978 7.37402 8.02051C7.21126 7.84798 6.99642 7.76172 6.72949 7.76172C6.40072 7.76172 6.15169 7.88216 5.98242 8.12305C5.81641 8.36068 5.7334 8.74805 5.7334 9.28516V9.43164C5.7334 9.97526 5.81641 10.3659 5.98242 10.6035C6.14844 10.8411 6.40072 10.96 6.73926 10.96ZM11.2461 12H9.83008V6.7168H11.2461V12ZM9.74707 5.34961C9.74707 5.13802 9.81706 4.96387 9.95703 4.82715C10.1003 4.69043 10.2939 4.62207 10.5381 4.62207C10.779 4.62207 10.971 4.69043 11.1143 4.82715C11.2575 4.96387 11.3291 5.13802 11.3291 5.34961C11.3291 5.56445 11.2559 5.74023 11.1094 5.87695C10.9661 6.01367 10.7757 6.08203 10.5381 6.08203C10.3005 6.08203 10.1084 6.01367 9.96191 5.87695C9.81868 5.74023 9.74707 5.56445 9.74707 5.34961ZM15.3818 8.04004C15.1898 8.014 15.0205 8.00098 14.874 8.00098C14.3402 8.00098 13.9902 8.18164 13.8242 8.54297V12H12.4131V6.7168H13.7461L13.7852 7.34668C14.0684 6.86165 14.4606 6.61914 14.9619 6.61914C15.1182 6.61914 15.2646 6.6403 15.4014 6.68262L15.3818 8.04004ZM18.165 10.96C18.4255 10.96 18.637 10.8883 18.7998 10.7451C18.9626 10.6019 19.0472 10.4115 19.0537 10.1738H20.377C20.3737 10.5319 20.276 10.8607 20.084 11.1602C19.8919 11.4564 19.6283 11.6875 19.293 11.8535C18.9609 12.0163 18.5931 12.0977 18.1895 12.0977C17.4342 12.0977 16.8385 11.8584 16.4023 11.3799C15.9661 10.8981 15.748 10.234 15.748 9.3877V9.29492C15.748 8.48112 15.9645 7.83171 16.3975 7.34668C16.8304 6.86165 17.4245 6.61914 18.1797 6.61914C18.8405 6.61914 19.3695 6.80794 19.7666 7.18555C20.167 7.5599 20.3704 8.05957 20.377 8.68457H19.0537C19.0472 8.41113 18.9626 8.18978 18.7998 8.02051C18.637 7.84798 18.4222 7.76172 18.1553 7.76172C17.8265 7.76172 17.5775 7.88216 17.4082 8.12305C17.2422 8.36068 17.1592 8.74805 17.1592 9.28516V9.43164C17.1592 9.97526 17.2422 10.3659 17.4082 10.6035C17.5742 10.8411 17.8265 10.96 18.165 10.96ZM24.3467 11.4629C23.9984 11.8861 23.5166 12.0977 22.9014 12.0977C22.335 12.0977 21.902 11.9349 21.6025 11.6094C21.3063 11.2839 21.1549 10.807 21.1484 10.1787V6.7168H22.5596V10.1299C22.5596 10.68 22.8102 10.9551 23.3115 10.9551C23.79 10.9551 24.1188 10.7891 24.2979 10.457V6.7168H25.7139V12H24.3857L24.3467 11.4629ZM28.2676 12H26.8516V6.7168H28.2676V12ZM26.7686 5.34961C26.7686 5.13802 26.8385 4.96387 26.9785 4.82715C27.1217 4.69043 27.3154 4.62207 27.5596 4.62207C27.8005 4.62207 27.9925 4.69043 28.1357 4.82715C28.279 4.96387 28.3506 5.13802 28.3506 5.34961C28.3506 5.56445 28.2773 5.74023 28.1309 5.87695C27.9876 6.01367 27.7972 6.08203 27.5596 6.08203C27.3219 6.08203 27.1299 6.01367 26.9834 5.87695C26.8402 5.74023 26.7686 5.56445 26.7686 5.34961ZM31.124 5.41797V6.7168H32.0273V7.75195H31.124V10.3887C31.124 10.584 31.1615 10.724 31.2363 10.8086C31.3112 10.8932 31.4544 10.9355 31.666 10.9355C31.8223 10.9355 31.9606 10.9242 32.0811 10.9014V11.9707C31.8044 12.0553 31.5195 12.0977 31.2266 12.0977C30.237 12.0977 29.7324 11.598 29.7129 10.5986V7.75195H28.9414V6.7168H29.7129V5.41797H31.124ZM35.7822 8.04004C35.5902 8.014 35.4209 8.00098 35.2744 8.00098C34.7406 8.00098 34.3906 8.18164 34.2246 8.54297V12H32.8135V6.7168H34.1465L34.1855 7.34668C34.4688 6.86165 34.861 6.61914 35.3623 6.61914C35.5186 6.61914 35.665 6.6403 35.8018 6.68262L35.7822 8.04004ZM38.5264 10.0029L39.5029 6.7168H41.0166L38.8926 12.8203L38.7754 13.0986C38.4596 13.7887 37.9388 14.1338 37.2129 14.1338C37.0078 14.1338 36.7995 14.1029 36.5879 14.041V12.9717L36.8027 12.9766C37.0697 12.9766 37.2682 12.9359 37.3984 12.8545C37.5319 12.7731 37.6361 12.638 37.7109 12.4492L37.877 12.0146L36.0264 6.7168H37.5449L38.5264 10.0029Z" fill="#F0EDF2"/>
</svg>
