<svg width="60" height="31" viewBox="0 0 60 31" fill="none" xmlns="http://www.w3.org/2000/svg">
<rect width="60" height="31" rx="12" fill="#96CA4D"/>
<path d="M5.99609 5.7168L6.04004 6.30762C6.41439 5.84863 6.92057 5.61914 7.55859 5.61914C8.23893 5.61914 8.70605 5.8877 8.95996 6.4248C9.33105 5.8877 9.86003 5.61914 10.5469 5.61914C11.1198 5.61914 11.5462 5.78678 11.8262 6.12207C12.1061 6.4541 12.2461 6.9554 12.2461 7.62598V11H10.8301V7.63086C10.8301 7.33138 10.7715 7.11328 10.6543 6.97656C10.5371 6.83659 10.3304 6.7666 10.0342 6.7666C9.611 6.7666 9.31803 6.96842 9.15527 7.37207L9.16016 11H7.74902V7.63574C7.74902 7.32975 7.6888 7.1084 7.56836 6.97168C7.44792 6.83496 7.24284 6.7666 6.95312 6.7666C6.55273 6.7666 6.26302 6.93262 6.08398 7.26465V11H4.67285V5.7168H5.99609ZM15.7666 11.0977C14.9919 11.0977 14.3604 10.86 13.8721 10.3848C13.387 9.90951 13.1445 9.27637 13.1445 8.48535V8.34863C13.1445 7.81803 13.2471 7.3444 13.4521 6.92773C13.6572 6.50781 13.9469 6.18555 14.3213 5.96094C14.6989 5.73307 15.1286 5.61914 15.6104 5.61914C16.333 5.61914 16.901 5.84701 17.3145 6.30273C17.7311 6.75846 17.9395 7.40462 17.9395 8.24121V8.81738H14.5752C14.6208 9.16243 14.7575 9.43913 14.9854 9.64746C15.2165 9.85579 15.5078 9.95996 15.8594 9.95996C16.403 9.95996 16.8278 9.76302 17.1338 9.36914L17.8271 10.1455C17.6156 10.445 17.3291 10.6794 16.9678 10.8486C16.6064 11.0146 16.2061 11.0977 15.7666 11.0977ZM15.6055 6.76172C15.3255 6.76172 15.0977 6.85612 14.9219 7.04492C14.7493 7.23372 14.6387 7.50391 14.5898 7.85547H16.5527V7.74316C16.5462 7.43066 16.4616 7.18978 16.2988 7.02051C16.1361 6.84798 15.9049 6.76172 15.6055 6.76172ZM20.9424 9.95996C21.2028 9.95996 21.4144 9.88835 21.5771 9.74512C21.7399 9.60189 21.8245 9.41146 21.8311 9.17383H23.1543C23.151 9.5319 23.0534 9.86068 22.8613 10.1602C22.6693 10.4564 22.4056 10.6875 22.0703 10.8535C21.7383 11.0163 21.3704 11.0977 20.9668 11.0977C20.2116 11.0977 19.6159 10.8584 19.1797 10.3799C18.7435 9.89811 18.5254 9.23405 18.5254 8.3877V8.29492C18.5254 7.48112 18.7419 6.83171 19.1748 6.34668C19.6077 5.86165 20.2018 5.61914 20.957 5.61914C21.6178 5.61914 22.1468 5.80794 22.5439 6.18555C22.9443 6.5599 23.1478 7.05957 23.1543 7.68457H21.8311C21.8245 7.41113 21.7399 7.18978 21.5771 7.02051C21.4144 6.84798 21.1995 6.76172 20.9326 6.76172C20.6038 6.76172 20.3548 6.88216 20.1855 7.12305C20.0195 7.36068 19.9365 7.74805 19.9365 8.28516V8.43164C19.9365 8.97526 20.0195 9.36589 20.1855 9.60352C20.3516 9.84115 20.6038 9.95996 20.9424 9.95996ZM25.3369 6.29297C25.7113 5.84375 26.1816 5.61914 26.748 5.61914C27.8939 5.61914 28.4749 6.28483 28.4912 7.61621V11H27.0801V7.65527C27.0801 7.35254 27.015 7.12956 26.8848 6.98633C26.7546 6.83984 26.5381 6.7666 26.2354 6.7666C25.8219 6.7666 25.5225 6.92611 25.3369 7.24512V11H23.9258V3.5H25.3369V6.29297ZM32.6172 11C32.5521 10.873 32.5049 10.7152 32.4756 10.5264C32.1338 10.9072 31.6895 11.0977 31.1426 11.0977C30.625 11.0977 30.1953 10.9479 29.8535 10.6484C29.515 10.349 29.3457 9.97135 29.3457 9.51562C29.3457 8.95573 29.5524 8.52604 29.9658 8.22656C30.3825 7.92708 30.9831 7.77572 31.7676 7.77246H32.417V7.46973C32.417 7.22559 32.3535 7.03027 32.2266 6.88379C32.1029 6.7373 31.9059 6.66406 31.6357 6.66406C31.3981 6.66406 31.2109 6.72103 31.0742 6.83496C30.9408 6.94889 30.874 7.10514 30.874 7.30371H29.4629C29.4629 6.99772 29.5573 6.71452 29.7461 6.4541C29.9349 6.19368 30.2018 5.99023 30.5469 5.84375C30.8919 5.69401 31.2793 5.61914 31.709 5.61914C32.36 5.61914 32.876 5.78353 33.2568 6.1123C33.641 6.43783 33.833 6.89681 33.833 7.48926V9.7793C33.8363 10.2806 33.9062 10.6598 34.043 10.917V11H32.6172ZM31.4502 10.0186C31.6585 10.0186 31.8506 9.97298 32.0264 9.88184C32.2021 9.78743 32.3324 9.66211 32.417 9.50586V8.59766H31.8896C31.1833 8.59766 30.8073 8.8418 30.7617 9.33008L30.7568 9.41309C30.7568 9.58887 30.8187 9.73372 30.9424 9.84766C31.0661 9.96159 31.2354 10.0186 31.4502 10.0186ZM36.2158 5.7168L36.2598 6.32715C36.6374 5.85514 37.1436 5.61914 37.7783 5.61914C38.3382 5.61914 38.7549 5.78353 39.0283 6.1123C39.3018 6.44108 39.4417 6.93262 39.4482 7.58691V11H38.0371V7.62109C38.0371 7.32161 37.972 7.10514 37.8418 6.97168C37.7116 6.83496 37.4951 6.7666 37.1924 6.7666C36.7952 6.7666 36.4974 6.93587 36.2988 7.27441V11H34.8877V5.7168H36.2158ZM42.0117 11H40.5957V5.7168H42.0117V11ZM40.5127 4.34961C40.5127 4.13802 40.5827 3.96387 40.7227 3.82715C40.8659 3.69043 41.0596 3.62207 41.3037 3.62207C41.5446 3.62207 41.7367 3.69043 41.8799 3.82715C42.0231 3.96387 42.0947 4.13802 42.0947 4.34961C42.0947 4.56445 42.0215 4.74023 41.875 4.87695C41.7318 5.01367 41.5413 5.08203 41.3037 5.08203C41.0661 5.08203 40.874 5.01367 40.7275 4.87695C40.5843 4.74023 40.5127 4.56445 40.5127 4.34961ZM45.376 9.95996C45.6364 9.95996 45.848 9.88835 46.0107 9.74512C46.1735 9.60189 46.2581 9.41146 46.2646 9.17383H47.5879C47.5846 9.5319 47.487 9.86068 47.2949 10.1602C47.1029 10.4564 46.8392 10.6875 46.5039 10.8535C46.1719 11.0163 45.804 11.0977 45.4004 11.0977C44.6452 11.0977 44.0495 10.8584 43.6133 10.3799C43.1771 9.89811 42.959 9.23405 42.959 8.3877V8.29492C42.959 7.48112 43.1755 6.83171 43.6084 6.34668C44.0413 5.86165 44.6354 5.61914 45.3906 5.61914C46.0514 5.61914 46.5804 5.80794 46.9775 6.18555C47.3779 6.5599 47.5814 7.05957 47.5879 7.68457H46.2646C46.2581 7.41113 46.1735 7.18978 46.0107 7.02051C45.848 6.84798 45.6331 6.76172 45.3662 6.76172C45.0374 6.76172 44.7884 6.88216 44.6191 7.12305C44.4531 7.36068 44.3701 7.74805 44.3701 8.28516V8.43164C44.3701 8.97526 44.4531 9.36589 44.6191 9.60352C44.7852 9.84115 45.0374 9.95996 45.376 9.95996ZM51.4551 11C51.39 10.873 51.3428 10.7152 51.3135 10.5264C50.9717 10.9072 50.5273 11.0977 49.9805 11.0977C49.4629 11.0977 49.0332 10.9479 48.6914 10.6484C48.3529 10.349 48.1836 9.97135 48.1836 9.51562C48.1836 8.95573 48.3903 8.52604 48.8037 8.22656C49.2204 7.92708 49.821 7.77572 50.6055 7.77246H51.2549V7.46973C51.2549 7.22559 51.1914 7.03027 51.0645 6.88379C50.9408 6.7373 50.7438 6.66406 50.4736 6.66406C50.236 6.66406 50.0488 6.72103 49.9121 6.83496C49.7786 6.94889 49.7119 7.10514 49.7119 7.30371H48.3008C48.3008 6.99772 48.3952 6.71452 48.584 6.4541C48.7728 6.19368 49.0397 5.99023 49.3848 5.84375C49.7298 5.69401 50.1172 5.61914 50.5469 5.61914C51.1979 5.61914 51.7139 5.78353 52.0947 6.1123C52.4788 6.43783 52.6709 6.89681 52.6709 7.48926V9.7793C52.6742 10.2806 52.7441 10.6598 52.8809 10.917V11H51.4551ZM50.2881 10.0186C50.4964 10.0186 50.6885 9.97298 50.8643 9.88184C51.04 9.78743 51.1702 9.66211 51.2549 9.50586V8.59766H50.7275C50.0212 8.59766 49.6452 8.8418 49.5996 9.33008L49.5947 9.41309C49.5947 9.58887 49.6566 9.73372 49.7803 9.84766C49.904 9.96159 50.0732 10.0186 50.2881 10.0186ZM55.2441 11H53.8281V3.5H55.2441V11ZM6.25488 23.0977C5.48014 23.0977 4.84863 22.86 4.36035 22.3848C3.87533 21.9095 3.63281 21.2764 3.63281 20.4854V20.3486C3.63281 19.818 3.73535 19.3444 3.94043 18.9277C4.14551 18.5078 4.43522 18.1855 4.80957 17.9609C5.18717 17.7331 5.61686 17.6191 6.09863 17.6191C6.82129 17.6191 7.38932 17.847 7.80273 18.3027C8.2194 18.7585 8.42773 19.4046 8.42773 20.2412V20.8174H5.06348C5.10905 21.1624 5.24577 21.4391 5.47363 21.6475C5.70475 21.8558 5.99609 21.96 6.34766 21.96C6.89128 21.96 7.31608 21.763 7.62207 21.3691L8.31543 22.1455C8.10384 22.445 7.81738 22.6794 7.45605 22.8486C7.09473 23.0146 6.69434 23.0977 6.25488 23.0977ZM6.09375 18.7617C5.8138 18.7617 5.58594 18.8561 5.41016 19.0449C5.23763 19.2337 5.12695 19.5039 5.07812 19.8555H7.04102V19.7432C7.03451 19.4307 6.94987 19.1898 6.78711 19.0205C6.62435 18.848 6.39323 18.7617 6.09375 18.7617ZM10.5322 17.7168L10.5762 18.3271C10.9538 17.8551 11.46 17.6191 12.0947 17.6191C12.6546 17.6191 13.0713 17.7835 13.3447 18.1123C13.6182 18.4411 13.7581 18.9326 13.7646 19.5869V23H12.3535V19.6211C12.3535 19.3216 12.2884 19.1051 12.1582 18.9717C12.028 18.835 11.8115 18.7666 11.5088 18.7666C11.1117 18.7666 10.8138 18.9359 10.6152 19.2744V23H9.2041V17.7168H10.5322ZM14.6338 20.3193C14.6338 19.5088 14.8258 18.8561 15.21 18.3613C15.5973 17.8665 16.1182 17.6191 16.7725 17.6191C17.3519 17.6191 17.8027 17.8177 18.125 18.2148L18.1836 17.7168H19.4629V22.8242C19.4629 23.2865 19.3571 23.6885 19.1455 24.0303C18.9372 24.3721 18.6426 24.6325 18.2617 24.8115C17.8809 24.9906 17.4349 25.0801 16.9238 25.0801C16.5365 25.0801 16.1589 25.002 15.791 24.8457C15.4232 24.6927 15.1449 24.4941 14.9561 24.25L15.5811 23.3906C15.9326 23.7845 16.359 23.9814 16.8604 23.9814C17.2347 23.9814 17.526 23.8805 17.7344 23.6787C17.9427 23.4801 18.0469 23.1969 18.0469 22.8291V22.5459C17.7214 22.9137 17.2933 23.0977 16.7627 23.0977C16.1279 23.0977 15.6136 22.8503 15.2197 22.3555C14.8291 21.8574 14.6338 21.1982 14.6338 20.3779V20.3193ZM16.0449 20.4219C16.0449 20.9004 16.141 21.2764 16.333 21.5498C16.5251 21.82 16.7887 21.9551 17.124 21.9551C17.5537 21.9551 17.8613 21.7939 18.0469 21.4717V19.25C17.8581 18.9277 17.5537 18.7666 17.1338 18.7666C16.7952 18.7666 16.5283 18.9049 16.333 19.1816C16.141 19.4583 16.0449 19.8717 16.0449 20.4219ZM22.041 23H20.625V17.7168H22.041V23ZM20.542 16.3496C20.542 16.138 20.612 15.9639 20.752 15.8271C20.8952 15.6904 21.0889 15.6221 21.333 15.6221C21.5739 15.6221 21.766 15.6904 21.9092 15.8271C22.0524 15.9639 22.124 16.138 22.124 16.3496C22.124 16.5645 22.0508 16.7402 21.9043 16.877C21.7611 17.0137 21.5706 17.082 21.333 17.082C21.0954 17.082 20.9033 17.0137 20.7568 16.877C20.6136 16.7402 20.542 16.5645 20.542 16.3496ZM24.5068 17.7168L24.5508 18.3271C24.9284 17.8551 25.4346 17.6191 26.0693 17.6191C26.6292 17.6191 27.0459 17.7835 27.3193 18.1123C27.5928 18.4411 27.7327 18.9326 27.7393 19.5869V23H26.3281V19.6211C26.3281 19.3216 26.263 19.1051 26.1328 18.9717C26.0026 18.835 25.7861 18.7666 25.4834 18.7666C25.0863 18.7666 24.7884 18.9359 24.5898 19.2744V23H23.1787V17.7168H24.5068ZM31.2451 23.0977C30.4704 23.0977 29.8389 22.86 29.3506 22.3848C28.8656 21.9095 28.623 21.2764 28.623 20.4854V20.3486C28.623 19.818 28.7256 19.3444 28.9307 18.9277C29.1357 18.5078 29.4255 18.1855 29.7998 17.9609C30.1774 17.7331 30.6071 17.6191 31.0889 17.6191C31.8115 17.6191 32.3796 17.847 32.793 18.3027C33.2096 18.7585 33.418 19.4046 33.418 20.2412V20.8174H30.0537C30.0993 21.1624 30.236 21.4391 30.4639 21.6475C30.695 21.8558 30.9863 21.96 31.3379 21.96C31.8815 21.96 32.3063 21.763 32.6123 21.3691L33.3057 22.1455C33.0941 22.445 32.8076 22.6794 32.4463 22.8486C32.085 23.0146 31.6846 23.0977 31.2451 23.0977ZM31.084 18.7617C30.804 18.7617 30.5762 18.8561 30.4004 19.0449C30.2279 19.2337 30.1172 19.5039 30.0684 19.8555H32.0312V19.7432C32.0247 19.4307 31.9401 19.1898 31.7773 19.0205C31.6146 18.848 31.3835 18.7617 31.084 18.7617ZM36.6553 23.0977C35.8805 23.0977 35.249 22.86 34.7607 22.3848C34.2757 21.9095 34.0332 21.2764 34.0332 20.4854V20.3486C34.0332 19.818 34.1357 19.3444 34.3408 18.9277C34.5459 18.5078 34.8356 18.1855 35.21 17.9609C35.5876 17.7331 36.0173 17.6191 36.499 17.6191C37.2217 17.6191 37.7897 17.847 38.2031 18.3027C38.6198 18.7585 38.8281 19.4046 38.8281 20.2412V20.8174H35.4639C35.5094 21.1624 35.6462 21.4391 35.874 21.6475C36.1051 21.8558 36.3965 21.96 36.748 21.96C37.2917 21.96 37.7165 21.763 38.0225 21.3691L38.7158 22.1455C38.5042 22.445 38.2178 22.6794 37.8564 22.8486C37.4951 23.0146 37.0947 23.0977 36.6553 23.0977ZM36.4941 18.7617C36.2142 18.7617 35.9863 18.8561 35.8105 19.0449C35.638 19.2337 35.5273 19.5039 35.4785 19.8555H37.4414V19.7432C37.4349 19.4307 37.3503 19.1898 37.1875 19.0205C37.0247 18.848 36.7936 18.7617 36.4941 18.7617ZM42.6025 19.04C42.4105 19.014 42.2412 19.001 42.0947 19.001C41.5609 19.001 41.2109 19.1816 41.0449 19.543V23H39.6338V17.7168H40.9668L41.0059 18.3467C41.2891 17.8617 41.6813 17.6191 42.1826 17.6191C42.3389 17.6191 42.4854 17.6403 42.6221 17.6826L42.6025 19.04ZM44.7754 23H43.3594V17.7168H44.7754V23ZM43.2764 16.3496C43.2764 16.138 43.3464 15.9639 43.4863 15.8271C43.6296 15.6904 43.8232 15.6221 44.0674 15.6221C44.3083 15.6221 44.5003 15.6904 44.6436 15.8271C44.7868 15.9639 44.8584 16.138 44.8584 16.3496C44.8584 16.5645 44.7852 16.7402 44.6387 16.877C44.4954 17.0137 44.305 17.082 44.0674 17.082C43.8298 17.082 43.6377 17.0137 43.4912 16.877C43.348 16.7402 43.2764 16.5645 43.2764 16.3496ZM47.2412 17.7168L47.2852 18.3271C47.6628 17.8551 48.1689 17.6191 48.8037 17.6191C49.3636 17.6191 49.7803 17.7835 50.0537 18.1123C50.3271 18.4411 50.4671 18.9326 50.4736 19.5869V23H49.0625V19.6211C49.0625 19.3216 48.9974 19.1051 48.8672 18.9717C48.737 18.835 48.5205 18.7666 48.2178 18.7666C47.8206 18.7666 47.5228 18.9359 47.3242 19.2744V23H45.9131V17.7168H47.2412ZM51.3428 20.3193C51.3428 19.5088 51.5348 18.8561 51.9189 18.3613C52.3063 17.8665 52.8271 17.6191 53.4814 17.6191C54.0609 17.6191 54.5117 17.8177 54.834 18.2148L54.8926 17.7168H56.1719V22.8242C56.1719 23.2865 56.0661 23.6885 55.8545 24.0303C55.6462 24.3721 55.3516 24.6325 54.9707 24.8115C54.5898 24.9906 54.1439 25.0801 53.6328 25.0801C53.2454 25.0801 52.8678 25.002 52.5 24.8457C52.1322 24.6927 51.8538 24.4941 51.665 24.25L52.29 23.3906C52.6416 23.7845 53.068 23.9814 53.5693 23.9814C53.9437 23.9814 54.235 23.8805 54.4434 23.6787C54.6517 23.4801 54.7559 23.1969 54.7559 22.8291V22.5459C54.4303 22.9137 54.0023 23.0977 53.4717 23.0977C52.8369 23.0977 52.3226 22.8503 51.9287 22.3555C51.5381 21.8574 51.3428 21.1982 51.3428 20.3779V20.3193ZM52.7539 20.4219C52.7539 20.9004 52.8499 21.2764 53.042 21.5498C53.234 21.82 53.4977 21.9551 53.833 21.9551C54.2627 21.9551 54.5703 21.7939 54.7559 21.4717V19.25C54.5671 18.9277 54.2627 18.7666 53.8428 18.7666C53.5042 18.7666 53.2373 18.9049 53.042 19.1816C52.8499 19.4583 52.7539 19.8717 52.7539 20.4219Z" fill="#F0EDF2"/>
</svg>
