<svg width="19" height="19" viewBox="0 0 19 19" fill="none" xmlns="http://www.w3.org/2000/svg">
<path d="M9.50001 10.2917C9.93724 10.2917 10.2917 9.93727 10.2917 9.50004C10.2917 9.06282 9.93724 8.70837 9.50001 8.70837C9.06278 8.70837 8.70834 9.06282 8.70834 9.50004C8.70834 9.93727 9.06278 10.2917 9.50001 10.2917Z" stroke="#0D0A0B" stroke-width="2" stroke-linecap="round" stroke-linejoin="round"/>
<path d="M9.50001 4.74996C9.93724 4.74996 10.2917 4.39552 10.2917 3.95829C10.2917 3.52107 9.93724 3.16663 9.50001 3.16663C9.06278 3.16663 8.70834 3.52107 8.70834 3.95829C8.70834 4.39552 9.06278 4.74996 9.50001 4.74996Z" stroke="#0D0A0B" stroke-width="2" stroke-linecap="round" stroke-linejoin="round"/>
<path d="M9.50001 15.8333C9.93724 15.8333 10.2917 15.4789 10.2917 15.0417C10.2917 14.6044 9.93724 14.25 9.50001 14.25C9.06278 14.25 8.70834 14.6044 8.70834 15.0417C8.70834 15.4789 9.06278 15.8333 9.50001 15.8333Z" stroke="#0D0A0B" stroke-width="2" stroke-linecap="round" stroke-linejoin="round"/>
</svg>
