<svg width="50" height="18" viewBox="0 0 50 18" fill="none" xmlns="http://www.w3.org/2000/svg">
<rect width="50" height="18" rx="9" fill="#96CA4D"/>
<path d="M7.40332 10.54C7.40332 10.3675 7.31706 10.2324 7.14453 10.1348C6.97526 10.0339 6.70182 9.94434 6.32422 9.86621C5.06771 9.60254 4.43945 9.06868 4.43945 8.26465C4.43945 7.7959 4.63314 7.40527 5.02051 7.09277C5.41113 6.77702 5.92057 6.61914 6.54883 6.61914C7.2194 6.61914 7.75488 6.77702 8.15527 7.09277C8.55892 7.40853 8.76074 7.81868 8.76074 8.32324H7.34961C7.34961 8.12142 7.28451 7.9554 7.1543 7.8252C7.02409 7.69173 6.82064 7.625 6.54395 7.625C6.30632 7.625 6.1224 7.67871 5.99219 7.78613C5.86198 7.89355 5.79688 8.03027 5.79688 8.19629C5.79688 8.35254 5.87012 8.47949 6.0166 8.57715C6.16634 8.67155 6.41699 8.75456 6.76855 8.82617C7.12012 8.89453 7.41634 8.97266 7.65723 9.06055C8.40267 9.33398 8.77539 9.80762 8.77539 10.4814C8.77539 10.9632 8.56868 11.3538 8.15527 11.6533C7.74186 11.9495 7.20801 12.0977 6.55371 12.0977C6.111 12.0977 5.71712 12.0195 5.37207 11.8633C5.03027 11.7038 4.76172 11.4873 4.56641 11.2139C4.37109 10.9372 4.27344 10.6393 4.27344 10.3203H5.61133C5.62435 10.571 5.71712 10.763 5.88965 10.8965C6.06217 11.0299 6.29329 11.0967 6.58301 11.0967C6.85319 11.0967 7.05664 11.0462 7.19336 10.9453C7.33333 10.8411 7.40332 10.7061 7.40332 10.54ZM9.46875 9.30957C9.46875 8.78548 9.56966 8.31836 9.77148 7.9082C9.97331 7.49805 10.263 7.18066 10.6406 6.95605C11.0215 6.73145 11.4626 6.61914 11.9639 6.61914C12.6768 6.61914 13.2578 6.83724 13.707 7.27344C14.1595 7.70964 14.4118 8.30208 14.4639 9.05078L14.4736 9.41211C14.4736 10.2227 14.2474 10.8737 13.7949 11.3652C13.3424 11.8535 12.7354 12.0977 11.9736 12.0977C11.2119 12.0977 10.6032 11.8535 10.1475 11.3652C9.69499 10.877 9.46875 10.2129 9.46875 9.37305V9.30957ZM10.8799 9.41211C10.8799 9.91341 10.9743 10.2975 11.1631 10.5645C11.3519 10.8281 11.6221 10.96 11.9736 10.96C12.3154 10.96 12.5824 10.8298 12.7744 10.5693C12.9665 10.3057 13.0625 9.88574 13.0625 9.30957C13.0625 8.81803 12.9665 8.43717 12.7744 8.16699C12.5824 7.89681 12.3122 7.76172 11.9639 7.76172C11.6188 7.76172 11.3519 7.89681 11.1631 8.16699C10.9743 8.43392 10.8799 8.84896 10.8799 9.41211ZM16.832 12H15.416V4.5H16.832V12ZM17.7793 9.31934C17.7793 8.49577 17.9632 7.83984 18.3311 7.35156C18.7021 6.86328 19.2083 6.61914 19.8496 6.61914C20.3639 6.61914 20.7887 6.8112 21.124 7.19531V4.5H22.54V12H21.2656L21.1973 11.4385C20.8457 11.8779 20.3932 12.0977 19.8398 12.0977C19.2181 12.0977 18.7184 11.8535 18.3408 11.3652C17.9665 10.8737 17.7793 10.1917 17.7793 9.31934ZM19.1904 9.42188C19.1904 9.91667 19.2767 10.2959 19.4492 10.5596C19.6217 10.8232 19.8724 10.9551 20.2012 10.9551C20.6374 10.9551 20.945 10.7712 21.124 10.4033V8.31836C20.9482 7.95052 20.6439 7.7666 20.2109 7.7666C19.5306 7.7666 19.1904 8.31836 19.1904 9.42188ZM26.0654 12.0977C25.2907 12.0977 24.6592 11.86 24.1709 11.3848C23.6859 10.9095 23.4434 10.2764 23.4434 9.48535V9.34863C23.4434 8.81803 23.5459 8.3444 23.751 7.92773C23.9561 7.50781 24.2458 7.18555 24.6201 6.96094C24.9977 6.73307 25.4274 6.61914 25.9092 6.61914C26.6318 6.61914 27.1999 6.84701 27.6133 7.30273C28.0299 7.75846 28.2383 8.40462 28.2383 9.24121V9.81738H24.874C24.9196 10.1624 25.0563 10.4391 25.2842 10.6475C25.5153 10.8558 25.8066 10.96 26.1582 10.96C26.7018 10.96 27.1266 10.763 27.4326 10.3691L28.126 11.1455C27.9144 11.445 27.6279 11.6794 27.2666 11.8486C26.9053 12.0146 26.5049 12.0977 26.0654 12.0977ZM25.9043 7.76172C25.6243 7.76172 25.3965 7.85612 25.2207 8.04492C25.0482 8.23372 24.9375 8.50391 24.8887 8.85547H26.8516V8.74316C26.8451 8.43066 26.7604 8.18978 26.5977 8.02051C26.4349 7.84798 26.2038 7.76172 25.9043 7.76172ZM32.0127 8.04004C31.8206 8.014 31.6514 8.00098 31.5049 8.00098C30.971 8.00098 30.6211 8.18164 30.4551 8.54297V12H29.0439V6.7168H30.377L30.416 7.34668C30.6992 6.86165 31.0915 6.61914 31.5928 6.61914C31.749 6.61914 31.8955 6.6403 32.0322 6.68262L32.0127 8.04004ZM34.1855 12H32.7695V6.7168H34.1855V12ZM32.6865 5.34961C32.6865 5.13802 32.7565 4.96387 32.8965 4.82715C33.0397 4.69043 33.2334 4.62207 33.4775 4.62207C33.7184 4.62207 33.9105 4.69043 34.0537 4.82715C34.1969 4.96387 34.2686 5.13802 34.2686 5.34961C34.2686 5.56445 34.1953 5.74023 34.0488 5.87695C33.9056 6.01367 33.7152 6.08203 33.4775 6.08203C33.2399 6.08203 33.0479 6.01367 32.9014 5.87695C32.7581 5.74023 32.6865 5.56445 32.6865 5.34961ZM36.6514 6.7168L36.6953 7.32715C37.0729 6.85514 37.5791 6.61914 38.2139 6.61914C38.7738 6.61914 39.1904 6.78353 39.4639 7.1123C39.7373 7.44108 39.8773 7.93262 39.8838 8.58691V12H38.4727V8.62109C38.4727 8.32161 38.4076 8.10514 38.2773 7.97168C38.1471 7.83496 37.9307 7.7666 37.6279 7.7666C37.2308 7.7666 36.9329 7.93587 36.7344 8.27441V12H35.3232V6.7168H36.6514ZM40.7529 9.31934C40.7529 8.50879 40.945 7.85612 41.3291 7.36133C41.7165 6.86654 42.2373 6.61914 42.8916 6.61914C43.471 6.61914 43.9219 6.81771 44.2441 7.21484L44.3027 6.7168H45.582V11.8242C45.582 12.2865 45.4762 12.6885 45.2646 13.0303C45.0563 13.3721 44.7617 13.6325 44.3809 13.8115C44 13.9906 43.554 14.0801 43.043 14.0801C42.6556 14.0801 42.278 14.002 41.9102 13.8457C41.5423 13.6927 41.264 13.4941 41.0752 13.25L41.7002 12.3906C42.0518 12.7845 42.4782 12.9814 42.9795 12.9814C43.3538 12.9814 43.6452 12.8805 43.8535 12.6787C44.0618 12.4801 44.166 12.1969 44.166 11.8291V11.5459C43.8405 11.9137 43.4124 12.0977 42.8818 12.0977C42.2471 12.0977 41.7327 11.8503 41.3389 11.3555C40.9482 10.8574 40.7529 10.1982 40.7529 9.37793V9.31934ZM42.1641 9.42188C42.1641 9.90039 42.2601 10.2764 42.4521 10.5498C42.6442 10.82 42.9079 10.9551 43.2432 10.9551C43.6729 10.9551 43.9805 10.7939 44.166 10.4717V8.25C43.9772 7.92773 43.6729 7.7666 43.2529 7.7666C42.9144 7.7666 42.6475 7.90495 42.4521 8.18164C42.2601 8.45833 42.1641 8.87174 42.1641 9.42188Z" fill="#F0EDF2"/>
</svg>
