<svg width="43" height="18" viewBox="0 0 43 18" fill="none" xmlns="http://www.w3.org/2000/svg">
<rect width="43" height="18" rx="9" fill="#7EC11F"/>
<path d="M9.13672 10.0811L9.83008 6.7168H11.1924L9.84473 12H8.66309L7.66211 8.6748L6.66113 12H5.48438L4.13672 6.7168H5.49902L6.1875 10.0762L7.1543 6.7168H8.1748L9.13672 10.0811ZM14.3271 12.0977C13.5524 12.0977 12.9209 11.86 12.4326 11.3848C11.9476 10.9095 11.7051 10.2764 11.7051 9.48535V9.34863C11.7051 8.81803 11.8076 8.3444 12.0127 7.92773C12.2178 7.50781 12.5075 7.18555 12.8818 6.96094C13.2594 6.73307 13.6891 6.61914 14.1709 6.61914C14.8936 6.61914 15.4616 6.84701 15.875 7.30273C16.2917 7.75846 16.5 8.40462 16.5 9.24121V9.81738H13.1357C13.1813 10.1624 13.318 10.4391 13.5459 10.6475C13.777 10.8558 14.0684 10.96 14.4199 10.96C14.9635 10.96 15.3883 10.763 15.6943 10.3691L16.3877 11.1455C16.1761 11.445 15.8896 11.6794 15.5283 11.8486C15.167 12.0146 14.7666 12.0977 14.3271 12.0977ZM14.166 7.76172C13.8861 7.76172 13.6582 7.85612 13.4824 8.04492C13.3099 8.23372 13.1992 8.50391 13.1504 8.85547H15.1133V8.74316C15.1068 8.43066 15.0221 8.18978 14.8594 8.02051C14.6966 7.84798 14.4655 7.76172 14.166 7.76172ZM18.7949 12H17.3789V4.5H18.7949V12ZM19.7422 9.31934C19.7422 8.49577 19.9261 7.83984 20.2939 7.35156C20.665 6.86328 21.1712 6.61914 21.8125 6.61914C22.3268 6.61914 22.7516 6.8112 23.0869 7.19531V4.5H24.5029V12H23.2285L23.1602 11.4385C22.8086 11.8779 22.3561 12.0977 21.8027 12.0977C21.181 12.0977 20.6813 11.8535 20.3037 11.3652C19.9294 10.8737 19.7422 10.1917 19.7422 9.31934ZM21.1533 9.42188C21.1533 9.91667 21.2396 10.2959 21.4121 10.5596C21.5846 10.8232 21.8353 10.9551 22.1641 10.9551C22.6003 10.9551 22.9079 10.7712 23.0869 10.4033V8.31836C22.9111 7.95052 22.6068 7.7666 22.1738 7.7666C21.4935 7.7666 21.1533 8.31836 21.1533 9.42188ZM27.0859 12H25.6699V6.7168H27.0859V12ZM25.5869 5.34961C25.5869 5.13802 25.6569 4.96387 25.7969 4.82715C25.9401 4.69043 26.1338 4.62207 26.3779 4.62207C26.6188 4.62207 26.8109 4.69043 26.9541 4.82715C27.0973 4.96387 27.1689 5.13802 27.1689 5.34961C27.1689 5.56445 27.0957 5.74023 26.9492 5.87695C26.806 6.01367 26.6156 6.08203 26.3779 6.08203C26.1403 6.08203 25.9482 6.01367 25.8018 5.87695C25.6585 5.74023 25.5869 5.56445 25.5869 5.34961ZM29.5518 6.7168L29.5957 7.32715C29.9733 6.85514 30.4795 6.61914 31.1143 6.61914C31.6742 6.61914 32.0908 6.78353 32.3643 7.1123C32.6377 7.44108 32.7777 7.93262 32.7842 8.58691V12H31.373V8.62109C31.373 8.32161 31.3079 8.10514 31.1777 7.97168C31.0475 7.83496 30.8311 7.7666 30.5283 7.7666C30.1312 7.7666 29.8333 7.93587 29.6348 8.27441V12H28.2236V6.7168H29.5518ZM33.6533 9.31934C33.6533 8.50879 33.8454 7.85612 34.2295 7.36133C34.6169 6.86654 35.1377 6.61914 35.792 6.61914C36.3714 6.61914 36.8223 6.81771 37.1445 7.21484L37.2031 6.7168H38.4824V11.8242C38.4824 12.2865 38.3766 12.6885 38.165 13.0303C37.9567 13.3721 37.6621 13.6325 37.2812 13.8115C36.9004 13.9906 36.4544 14.0801 35.9434 14.0801C35.556 14.0801 35.1784 14.002 34.8105 13.8457C34.4427 13.6927 34.1644 13.4941 33.9756 13.25L34.6006 12.3906C34.9521 12.7845 35.3786 12.9814 35.8799 12.9814C36.2542 12.9814 36.5456 12.8805 36.7539 12.6787C36.9622 12.4801 37.0664 12.1969 37.0664 11.8291V11.5459C36.7409 11.9137 36.3128 12.0977 35.7822 12.0977C35.1475 12.0977 34.6331 11.8503 34.2393 11.3555C33.8486 10.8574 33.6533 10.1982 33.6533 9.37793V9.31934ZM35.0645 9.42188C35.0645 9.90039 35.1605 10.2764 35.3525 10.5498C35.5446 10.82 35.8083 10.9551 36.1436 10.9551C36.5732 10.9551 36.8809 10.7939 37.0664 10.4717V8.25C36.8776 7.92773 36.5732 7.7666 36.1533 7.7666C35.8148 7.7666 35.5479 7.90495 35.3525 8.18164C35.1605 8.45833 35.0645 8.87174 35.0645 9.42188Z" fill="#F0EDF2"/>
</svg>
