<svg width="35" height="18" viewBox="0 0 35 18" fill="none" xmlns="http://www.w3.org/2000/svg">
<rect width="35" height="18" rx="9" fill="#7EC11F"/>
<path d="M9.13672 10.0811L9.83008 6.7168H11.1924L9.84473 12H8.66309L7.66211 8.6748L6.66113 12H5.48438L4.13672 6.7168H5.49902L6.1875 10.0762L7.1543 6.7168H8.1748L9.13672 10.0811ZM13.3848 12H11.9688V6.7168H13.3848V12ZM11.8857 5.34961C11.8857 5.13802 11.9557 4.96387 12.0957 4.82715C12.2389 4.69043 12.4326 4.62207 12.6768 4.62207C12.9176 4.62207 13.1097 4.69043 13.2529 4.82715C13.3962 4.96387 13.4678 5.13802 13.4678 5.34961C13.4678 5.56445 13.3945 5.74023 13.248 5.87695C13.1048 6.01367 12.9144 6.08203 12.6768 6.08203C12.4391 6.08203 12.2471 6.01367 12.1006 5.87695C11.9574 5.74023 11.8857 5.56445 11.8857 5.34961ZM17.5205 8.04004C17.3285 8.014 17.1592 8.00098 17.0127 8.00098C16.4788 8.00098 16.1289 8.18164 15.9629 8.54297V12H14.5518V6.7168H15.8848L15.9238 7.34668C16.207 6.86165 16.5993 6.61914 17.1006 6.61914C17.2568 6.61914 17.4033 6.6403 17.54 6.68262L17.5205 8.04004ZM19.6934 12H18.2773V6.7168H19.6934V12ZM18.1943 5.34961C18.1943 5.13802 18.2643 4.96387 18.4043 4.82715C18.5475 4.69043 18.7412 4.62207 18.9854 4.62207C19.2262 4.62207 19.4183 4.69043 19.5615 4.82715C19.7048 4.96387 19.7764 5.13802 19.7764 5.34961C19.7764 5.56445 19.7031 5.74023 19.5566 5.87695C19.4134 6.01367 19.223 6.08203 18.9854 6.08203C18.7477 6.08203 18.5557 6.01367 18.4092 5.87695C18.266 5.74023 18.1943 5.56445 18.1943 5.34961ZM22.1592 6.7168L22.2031 7.32715C22.5807 6.85514 23.0869 6.61914 23.7217 6.61914C24.2816 6.61914 24.6982 6.78353 24.9717 7.1123C25.2451 7.44108 25.3851 7.93262 25.3916 8.58691V12H23.9805V8.62109C23.9805 8.32161 23.9154 8.10514 23.7852 7.97168C23.6549 7.83496 23.4385 7.7666 23.1357 7.7666C22.7386 7.7666 22.4408 7.93587 22.2422 8.27441V12H20.8311V6.7168H22.1592ZM26.2607 9.31934C26.2607 8.50879 26.4528 7.85612 26.8369 7.36133C27.2243 6.86654 27.7451 6.61914 28.3994 6.61914C28.9788 6.61914 29.4297 6.81771 29.752 7.21484L29.8105 6.7168H31.0898V11.8242C31.0898 12.2865 30.984 12.6885 30.7725 13.0303C30.5641 13.3721 30.2695 13.6325 29.8887 13.8115C29.5078 13.9906 29.0618 14.0801 28.5508 14.0801C28.1634 14.0801 27.7858 14.002 27.418 13.8457C27.0501 13.6927 26.7718 13.4941 26.583 13.25L27.208 12.3906C27.5596 12.7845 27.986 12.9814 28.4873 12.9814C28.8617 12.9814 29.153 12.8805 29.3613 12.6787C29.5697 12.4801 29.6738 12.1969 29.6738 11.8291V11.5459C29.3483 11.9137 28.9202 12.0977 28.3896 12.0977C27.7549 12.0977 27.2406 11.8503 26.8467 11.3555C26.4561 10.8574 26.2607 10.1982 26.2607 9.37793V9.31934ZM27.6719 9.42188C27.6719 9.90039 27.7679 10.2764 27.96 10.5498C28.152 10.82 28.4157 10.9551 28.751 10.9551C29.1807 10.9551 29.4883 10.7939 29.6738 10.4717V8.25C29.485 7.92773 29.1807 7.7666 28.7607 7.7666C28.4222 7.7666 28.1553 7.90495 27.96 8.18164C27.7679 8.45833 27.6719 8.87174 27.6719 9.42188Z" fill="#F0EDF2"/>
</svg>
